<svg xmlns="http://www.w3.org/2000/svg" viewBox="0 0 531.02 32.45"><title>line2</title><g id="Layer_2" data-name="Layer 2"><g id="Layer_1-2" data-name="Layer 1"><path d="M0,.58H7.25L9.41,15.22c.38,3.26.86,6.57,1.25,9.89h.19c.62-3.32,1.25-6.63,1.87-9.89L16.08.58h6l3.36,14.64c.63,3.17,1.25,6.53,1.87,9.89h.2c.43-3.36.86-6.68,1.29-9.89L31,.58h6.77l-5.57,31.3H23.28L20.21,17.67c-.53-2.4-.91-5-1.25-7.25h-.19c-.38,2.3-.77,4.85-1.3,7.25L14.55,31.88H5.81Z"/><path d="M42.05.58H61.63v6H49.1v6.29H59.76v5.9H49.1v7.2h13v6H42.05Z"/><path d="M68.35.58h7.06V25.92H87.79v6H68.35Z"/><path d="M90,16.42C90,6.05,96.86,0,104.78,0a13.22,13.22,0,0,1,9.41,4.08l-3.74,4.51a8,8,0,0,0-5.52-2.49c-4.27,0-7.68,3.79-7.68,10.08s3,10.17,7.58,10.17a8.35,8.35,0,0,0,6.1-2.92l3.74,4.41a12.87,12.87,0,0,1-10.13,4.61C96.62,32.45,90,26.93,90,16.42Z"/><path d="M116.16,16.08C116.16,5.86,121.92,0,130.37,0s14.21,5.9,14.21,16.08-5.76,16.37-14.21,16.37S116.16,26.31,116.16,16.08Zm21.17,0c0-6.24-2.69-10-7-10s-7,3.74-7,10,2.69,10.27,7,10.27S137.33,22.37,137.33,16.08Z"/><path d="M150.48.58h7.73l5,13.92c.62,1.82,1.2,3.84,1.82,5.76h.19c.63-1.92,1.16-3.94,1.78-5.76L172,.58h7.68v31.3h-6.43V20.4c0-3.07.58-7.63.91-10.65H174l-2.54,7.44-4.47,12h-3.88l-4.47-11.95-2.5-7.44h-.19c.34,3,.91,7.58.91,10.65V31.88h-6.33Z"/><path d="M187.05.58h19.59v6H194.11v6.29h10.66v5.9H194.11v7.2h13v6H187.05Z"/><path d="M229.05,6.53h-8.59V.58h24.29v6h-8.59V31.88h-7.11Z"/><path d="M246.81,16.08C246.81,5.86,252.57,0,261,0s14.21,5.9,14.21,16.08S269.47,32.45,261,32.45,246.81,26.31,246.81,16.08Zm21.17,0c0-6.24-2.69-10-7-10s-7,3.74-7,10,2.69,10.27,7,10.27S268,22.37,268,16.08Z"/><path d="M290.73.58h7.73l5,13.92c.63,1.82,1.2,3.84,1.83,5.76h.19c.62-1.92,1.15-3.94,1.77-5.76L312.24.58h7.68v31.3h-6.43V20.4c0-3.07.57-7.63.91-10.65h-.19l-2.55,7.44-4.46,12h-3.89l-4.46-11.95-2.5-7.44h-.19c.33,3,.91,7.58.91,10.65V31.88h-6.34Z"/><path d="M332.69,20.74,323.23.58h7.58l2.79,7.2c.86,2.35,1.68,4.51,2.54,6.91h.19c.92-2.4,1.78-4.56,2.64-6.91l2.84-7.2h7.39l-9.46,20.16V31.88h-7.05Z"/><path d="M362.11.58h8.83c9.55,0,15.7,4.75,15.7,15.5s-6.15,15.8-15.32,15.8h-9.21Zm8.4,25.58c5.33,0,8.88-2.59,8.88-10.08s-3.55-9.79-8.88-9.79h-1.35V26.16Z"/><path d="M392.59.58h19.58v6H399.65v6.29H410.3v5.9H399.65v7.2h13v6H392.59Z"/><path d="M414.86.58h7.49l3.74,14.59c1,3.41,1.59,6.58,2.55,10h.19c.91-3.45,1.58-6.62,2.49-10L435,.58h7.2l-9.41,31.3h-8.49Z"/><path d="M455.18.58h7.05V25.92h12.39v6H455.18Z"/><path d="M494.44,24.43h-9.55L483,31.88h-7.2L485.56.58h8.5l9.79,31.3h-7.49ZM493,18.91,492.28,16c-.86-3.12-1.72-6.81-2.54-10.08h-.19c-.77,3.32-1.59,7-2.45,10.08l-.77,2.88Z"/><path d="M507.26.58H518c6.48,0,11.52,1.77,11.52,7.77,0,2.79-1.53,5.81-4.08,6.77v.19A7.1,7.1,0,0,1,531,22.66c0,6.38-5.38,9.22-12.14,9.22H507.26Zm10.37,12.53c3.45,0,4.94-1.44,4.94-3.7,0-2.45-1.58-3.36-4.89-3.36h-3.37v7.06Zm.67,13.29c3.84,0,5.81-1.34,5.81-4.22s-1.92-3.84-5.81-3.84h-4V26.4Z"/></g></g></svg>