<svg xmlns="http://www.w3.org/2000/svg" viewBox="0 0 299.76 32.45"><title>line1</title><g id="Layer_2" data-name="Layer 2"><g id="Layer_1-2" data-name="Layer 1"><path d="M0,.58H7.06V12.63h10.8V.58H25V31.87h-7.1v-13H7.06V31.87H0Z"/><path d="M32.35.58H51.94v6H39.41v6.29H50.07v5.9H39.41v7.2h13v5.95H32.35Z"/><path d="M58.66.58h7V25.92H78.1v5.95H58.66Z"/><path d="M83.52.58h7.06V25.92H103v5.95H83.52Z"/><path d="M105.17,16.08C105.17,5.86,110.93,0,119.38,0s14.2,5.9,14.2,16.08-5.76,16.37-14.2,16.37S105.17,26.31,105.17,16.08Zm21.17,0c0-6.24-2.69-10-7-10s-7,3.74-7,10,2.68,10.27,7,10.27S126.34,22.37,126.34,16.08Z"/><path d="M146.06.58h7.25l2.16,14.64c.38,3.26.86,6.57,1.25,9.89h.19c.63-3.32,1.25-6.63,1.87-9.89L162.14.58h6l3.36,14.64c.63,3.17,1.25,6.53,1.88,9.89h.19c.43-3.36.86-6.68,1.29-9.89L177,.58h6.77l-5.56,31.29h-8.89l-3.07-14.2c-.53-2.4-.91-5-1.25-7.25h-.19c-.38,2.3-.77,4.85-1.29,7.25l-2.93,14.2h-8.74Z"/><path d="M186.62,16.08C186.62,5.86,192.38,0,200.83,0S215,5.9,215,16.08s-5.76,16.37-14.21,16.37S186.62,26.31,186.62,16.08Zm21.17,0c0-6.24-2.69-10-7-10s-7,3.74-7,10,2.69,10.27,7,10.27S207.79,22.37,207.79,16.08Z"/><path d="M237.89,31.87l-6-11.28H228V31.87h-7.06V.58h11.28c6.63,0,12.05,2.3,12.05,9.74,0,4.61-2.21,7.54-5.57,9l7.11,12.52ZM228,15h3.65c3.69,0,5.71-1.59,5.71-4.66s-2-4.13-5.71-4.13H228Z"/><path d="M250.37.58h7.05V25.92h12.39v5.95H250.37Z"/><path d="M275.23.58h8.83c9.55,0,15.7,4.75,15.7,15.5s-6.15,15.79-15.31,15.79h-9.22Zm8.4,25.58c5.33,0,8.88-2.59,8.88-10.08S289,6.29,283.63,6.29h-1.34V26.16Z"/></g></g></svg>