<svg xmlns="http://www.w3.org/2000/svg" viewBox="0 0 389.1 322.1"><defs><style>.cls-1,.cls-2,.cls-4{stroke:#fff;stroke-miterlimit:10;stroke-width:0.1px;}.cls-2{fill:#c3c3c3;}.cls-3{fill:#e6e6e6;}.cls-4{fill:#acacac;}</style></defs><title>screen</title><g id="Layer_2" data-name="Layer 2"><g id="Desktop_1" data-name="Desktop 1"><path class="cls-1" d="M372.64.05H16.46A16.41,16.41,0,0,0,.05,16.46V229.05h389V16.46A16.41,16.41,0,0,0,372.64.05Z"/><path class="cls-2" d="M.05,229.05v34.59a16.41,16.41,0,0,0,16.41,16.41H372.64a16.41,16.41,0,0,0,16.41-16.41V229.05Z"/><rect class="cls-3" x="16.05" y="17.05" width="356" height="200"/><rect class="cls-4" x="157.05" y="280.05" width="75" height="37"/><path class="cls-2" d="M251.45,322.05H137.14a2.44,2.44,0,0,1-2.31-1.51,2.5,2.5,0,0,1,2.19-3.49H251.33a2.44,2.44,0,0,1,2.31,1.51A2.5,2.5,0,0,1,251.45,322.05Z"/></g></g></svg>