<svg xmlns="http://www.w3.org/2000/svg" viewBox="0 0 389 322"><defs><style>.cls-1{fill:#c3c3c3;}.cls-2{fill:#e6e6e6;}.cls-3{fill:#acacac;}</style></defs><title>screen</title><g id="Layer_2" data-name="Layer 2"><g id="Layer_1-2" data-name="Layer 1"><path d="M372.59,0H16.41A16.41,16.41,0,0,0,0,16.41V229H389V16.41A16.41,16.41,0,0,0,372.59,0Z"/><path class="cls-1" d="M0,229v34.59A16.41,16.41,0,0,0,16.41,280H372.59A16.41,16.41,0,0,0,389,263.59V229Z"/><rect class="cls-2" x="16" y="17" width="356" height="200"/><rect class="cls-3" x="157" y="280" width="75" height="37"/><path class="cls-1" d="M251.4,322H137.09a2.44,2.44,0,0,1-2.31-1.51A2.5,2.5,0,0,1,137,317H251.28a2.44,2.44,0,0,1,2.31,1.51A2.5,2.5,0,0,1,251.4,322Z"/><path d="M93.54,114.46v23.75h-5v-10H78.1v10h-5V114.46h5v9.75H88.57v-9.75Z"/><path d="M115.68,131.09H102.94q.75,3.81,4.5,3.81a5.12,5.12,0,0,0,2.55-.57,3.15,3.15,0,0,0,1.41-1.66l4,1.48a6.39,6.39,0,0,1-2.9,3.29,10.3,10.3,0,0,1-5.09,1.14,8.54,8.54,0,0,1-9.36-9.37,9.53,9.53,0,0,1,2.37-6.89,8.9,8.9,0,0,1,6.7-2.47,8.35,8.35,0,0,1,6.42,2.42q2.25,2.42,2.25,6.87A12.35,12.35,0,0,1,115.68,131.09Zm-11.43-6.55a5.16,5.16,0,0,0-1.35,3.09h8.39a5.22,5.22,0,0,0-1.37-3.08,4.34,4.34,0,0,0-5.67,0Z"/><path d="M124.82,132.49a3.14,3.14,0,0,0,.38,1.8,1.62,1.62,0,0,0,1.39.5,6.54,6.54,0,0,0,1.06-.08,8.8,8.8,0,0,0,1.06-.31l-.43,3.42a4.72,4.72,0,0,1-1.51.56,9.08,9.08,0,0,1-1.84.2,5.05,5.05,0,0,1-3.83-1.28,5.8,5.8,0,0,1-1.21-4.09V112.33h4.93Z"/><path d="M136.31,132.49a3.16,3.16,0,0,0,.37,1.8,1.64,1.64,0,0,0,1.39.5,6.45,6.45,0,0,0,1.06-.08,8.3,8.3,0,0,0,1.06-.31l-.43,3.42a4.63,4.63,0,0,1-1.51.56,9,9,0,0,1-1.84.2,5.05,5.05,0,0,1-3.83-1.28,5.84,5.84,0,0,1-1.21-4.09V112.33h4.94Z"/><path d="M158,122.34a10.94,10.94,0,0,1,0,13.75,10.5,10.5,0,0,1-13.58,0,10.94,10.94,0,0,1,0-13.75,10.5,10.5,0,0,1,13.58,0ZM148,125a8.89,8.89,0,0,0,0,8.53,4.29,4.29,0,0,0,6.38,0,8.89,8.89,0,0,0,0-8.53,4.29,4.29,0,0,0-6.38,0Z"/><path d="M185.7,138.21H180l-6.91-23.75h5.37l4.6,19.83,4.76-19.83h4.75l4.82,19.83L202,114.46h5.11l-6.91,23.75h-5.58l-3.31-13-1.12-5.61h-.07L189,125.25Z"/><path d="M223.8,122.34a10.94,10.94,0,0,1,0,13.75,10.49,10.49,0,0,1-13.57,0,10.94,10.94,0,0,1,0-13.75,10.49,10.49,0,0,1,13.57,0Zm-10,2.61a8.82,8.82,0,0,0,0,8.53,4.28,4.28,0,0,0,6.37,0,8.82,8.82,0,0,0,0-8.53,4.28,4.28,0,0,0-6.37,0Z"/><path d="M242.61,120.25l-.61,4.32a4.12,4.12,0,0,0-2.27-.54,4.17,4.17,0,0,0-3,1.28,4.85,4.85,0,0,0-1.28,3.58v9.32h-4.93v-18h4.29l.32,3.53a5.51,5.51,0,0,1,5.58-3.89A3.93,3.93,0,0,1,242.61,120.25Z"/><path d="M250.53,132.49a3.14,3.14,0,0,0,.38,1.8,1.63,1.63,0,0,0,1.39.5,6.45,6.45,0,0,0,1.06-.08,8.8,8.8,0,0,0,1.06-.31l-.43,3.42a4.63,4.63,0,0,1-1.51.56,9.08,9.08,0,0,1-1.84.2,5.05,5.05,0,0,1-3.83-1.28,5.8,5.8,0,0,1-1.21-4.09V112.33h4.93Z"/><path d="M274.58,112.33v25.88h-4.39l-.22-3.34a6.28,6.28,0,0,1-2.35,2.7,6.52,6.52,0,0,1-3.59,1,7,7,0,0,1-5.65-2.47,10.42,10.42,0,0,1-2.05-6.86,10.55,10.55,0,0,1,2.05-6.91,6.93,6.93,0,0,1,5.65-2.49,6.35,6.35,0,0,1,3.39.89,6,6,0,0,1,2.23,2.43V112.33Zm-6.05,21.06a6.25,6.25,0,0,0,1.12-4V129a6.24,6.24,0,0,0-1.12-4,4,4,0,0,0-6.15,0,8.19,8.19,0,0,0,0,8.27,4,4,0,0,0,6.15,0Z"/><path d="M295.91,119.65a3.07,3.07,0,0,1,0,4.24,3.7,3.7,0,0,1-4.57,0,3.12,3.12,0,0,1,0-4.28,3.7,3.7,0,0,1,4.57,0Zm0,12.85a3.08,3.08,0,0,1,0,4.25,3.72,3.72,0,0,1-4.57,0,2.72,2.72,0,0,1-.85-2.14,2.74,2.74,0,0,1,.85-2.14,3.74,3.74,0,0,1,4.57,0Z"/><path d="M321,143.26h-9.43v-3.63h5.07V115h-5.07v-3.64H321Z"/></g></g></svg>